<svg xmlns="http://www.w3.org/2000/svg" xmlns:xlink="http://www.w3.org/1999/xlink" width="200" zoomAndPan="magnify" viewBox="0 0 150 37.5" height="50" preserveAspectRatio="xMidYMid meet" version="1.0"><defs><g/><clipPath id="d6327824cd"><path d="M 2.296875 6 L 18.578125 6 L 18.578125 37 L 2.296875 37 Z M 2.296875 6 " clip-rule="nonzero"/></clipPath><clipPath id="0556b21f8a"><path d="M 9 3.699219 L 16 3.699219 L 16 11 L 9 11 Z M 9 3.699219 " clip-rule="nonzero"/></clipPath><clipPath id="78105f44f0"><path d="M 8.496094 1 L 12 1 L 12 6.117188 L 8.496094 6.117188 Z M 8.496094 1 " clip-rule="nonzero"/></clipPath><clipPath id="bd2c720515"><path d="M 13 0.9375 L 16.636719 0.9375 L 16.636719 6.117188 L 13 6.117188 Z M 13 0.9375 " clip-rule="nonzero"/></clipPath><clipPath id="976e0a12b0"><path d="M 35.75 3.699219 L 41 3.699219 L 41 14.0625 L 35.75 14.0625 Z M 35.75 3.699219 " clip-rule="nonzero"/></clipPath><clipPath id="c3223f6316"><path d="M 45 3.699219 L 50.550781 3.699219 L 50.550781 14 L 45 14 Z M 45 3.699219 " clip-rule="nonzero"/></clipPath><clipPath id="32616e0372"><path d="M 11 18 L 22 18 L 22 33 L 11 33 Z M 11 18 " clip-rule="nonzero"/></clipPath><clipPath id="bb94ded933"><path d="M 22.945312 33.304688 L 10.390625 32.449219 L 11.347656 18.417969 L 23.898438 19.273438 Z M 22.945312 33.304688 " clip-rule="nonzero"/></clipPath><clipPath id="623578489f"><path d="M 22.945312 33.304688 L 10.390625 32.449219 L 11.347656 18.417969 L 23.898438 19.273438 Z M 22.945312 33.304688 " clip-rule="nonzero"/></clipPath><clipPath id="8d4cf44bd0"><path d="M 20 31 L 23 31 L 23 34 L 20 34 Z M 20 31 " clip-rule="nonzero"/></clipPath><clipPath id="ef9356ebeb"><path d="M 22.945312 33.304688 L 10.390625 32.449219 L 11.347656 18.417969 L 23.898438 19.273438 Z M 22.945312 33.304688 " clip-rule="nonzero"/></clipPath><clipPath id="127162c7a2"><path d="M 22.945312 33.304688 L 10.390625 32.449219 L 11.347656 18.417969 L 23.898438 19.273438 Z M 22.945312 33.304688 " clip-rule="nonzero"/></clipPath></defs><g fill="#000000" fill-opacity="1"><g transform="translate(20.83772, 24.741828)"><g><path d="M 11.609375 -3.945312 C 10.867188 -3.078125 9.769531 -2.546875 8.476562 -2.546875 C 5.980469 -2.546875 4.210938 -4.582031 4.210938 -7.078125 C 4.210938 -9.574219 5.980469 -11.609375 8.476562 -11.609375 C 9.769531 -11.609375 10.867188 -11.078125 11.609375 -10.210938 L 13.609375 -12.195312 C 12.300781 -13.503906 10.476562 -14.316406 8.476562 -14.316406 C 4.476562 -14.316406 1.238281 -11.078125 1.238281 -7.078125 C 1.238281 -3.078125 4.476562 0.160156 8.476562 0.160156 C 10.476562 0.160156 12.300781 -0.65625 13.609375 -1.964844 Z M 11.609375 -3.945312 "/></g></g></g><g fill="#000000" fill-opacity="1"><g transform="translate(35.684446, 24.741828)"><g><path d="M 7.859375 -14.335938 C 3.859375 -14.335938 0.621094 -11.097656 0.621094 -7.097656 C 0.621094 -3.097656 3.859375 0.140625 7.859375 0.140625 C 11.859375 0.140625 15.097656 -3.097656 15.097656 -7.097656 C 15.097656 -11.097656 11.859375 -14.335938 7.859375 -14.335938 Z M 7.859375 -11.628906 C 10.371094 -11.628906 12.140625 -9.59375 12.140625 -7.097656 C 12.140625 -4.601562 10.371094 -2.566406 7.859375 -2.566406 C 5.363281 -2.566406 3.59375 -4.601562 3.59375 -7.097656 C 3.59375 -9.59375 5.363281 -11.628906 7.859375 -11.628906 Z M 7.859375 -11.628906 "/></g></g></g><g fill="#000000" fill-opacity="1"><g transform="translate(51.398273, 24.741828)"><g><path d="M 9.644531 -14.160156 L 9.644531 -4.601562 L 4.140625 -14.160156 L 1.238281 -14.160156 L 1.238281 0 L 3.894531 0 L 3.894531 -8.867188 L 8.992188 0 L 12.300781 0 L 12.300781 -14.160156 Z M 9.644531 -14.160156 "/></g></g></g><g fill="#000000" fill-opacity="1"><g transform="translate(64.935516, 24.741828)"><g><path d="M 10.035156 -11.503906 L 10.035156 -14.160156 L 1.238281 -14.160156 L 1.238281 0 L 3.894531 0 L 3.894531 -5.007812 L 7.789062 -5.007812 L 7.789062 -7.664062 L 3.894531 -7.664062 L 3.894531 -11.503906 Z M 10.035156 -11.503906 "/></g></g></g><g fill="#000000" fill-opacity="1"><g transform="translate(75.659131, 24.741828)"><g><path d="M 1.238281 -14.160156 L 3.894531 -14.160156 L 3.894531 -0.0546875 L 1.238281 -0.0546875 Z M 1.238281 -14.160156 "/></g></g></g><g fill="#000000" fill-opacity="1"><g transform="translate(80.790902, 24.741828)"><g><path d="M 7.113281 0.175781 L 7.433594 0.175781 C 10.476562 0.160156 12.210938 -1.824219 12.335938 -3.789062 C 12.476562 -5.839844 10.917969 -8.140625 7.167969 -8.617188 L 7.132812 -8.617188 C 5.769531 -8.777344 4.355469 -9.449219 4.425781 -10.441406 C 4.476562 -11.148438 5.539062 -11.804688 7.46875 -11.714844 L 7.523438 -11.714844 C 8.582031 -11.714844 9.859375 -11.203125 10.511719 -10.726562 L 12.035156 -12.847656 C 11.027344 -13.574219 9.257812 -14.316406 7.558594 -14.316406 C 3.804688 -14.511719 1.980469 -12.601562 1.824219 -10.65625 C 1.734375 -9.523438 2.210938 -8.40625 3.132812 -7.558594 C 4.035156 -6.726562 5.328125 -6.195312 6.847656 -6.035156 C 8.917969 -5.75 9.789062 -4.796875 9.734375 -3.964844 C 9.679688 -3.203125 8.867188 -2.441406 7.398438 -2.441406 L 7.308594 -2.441406 C 7.292969 -2.441406 5.363281 -2.335938 4.175781 -3.308594 C 3.875 -3.539062 3.628906 -3.824219 3.398438 -4.160156 L 1.238281 -2.691406 C 1.59375 -2.160156 2.035156 -1.679688 2.53125 -1.273438 C 4.140625 0.0351562 6.265625 0.175781 7.113281 0.175781 Z M 7.113281 0.175781 "/></g></g></g><g fill="#000000" fill-opacity="1"><g transform="translate(94.363542, 24.741828)"><g><path d="M 7.113281 0.175781 L 7.433594 0.175781 C 10.476562 0.160156 12.210938 -1.824219 12.335938 -3.789062 C 12.476562 -5.839844 10.917969 -8.140625 7.167969 -8.617188 L 7.132812 -8.617188 C 5.769531 -8.777344 4.355469 -9.449219 4.425781 -10.441406 C 4.476562 -11.148438 5.539062 -11.804688 7.46875 -11.714844 L 7.523438 -11.714844 C 8.582031 -11.714844 9.859375 -11.203125 10.511719 -10.726562 L 12.035156 -12.847656 C 11.027344 -13.574219 9.257812 -14.316406 7.558594 -14.316406 C 3.804688 -14.511719 1.980469 -12.601562 1.824219 -10.65625 C 1.734375 -9.523438 2.210938 -8.40625 3.132812 -7.558594 C 4.035156 -6.726562 5.328125 -6.195312 6.847656 -6.035156 C 8.917969 -5.75 9.789062 -4.796875 9.734375 -3.964844 C 9.679688 -3.203125 8.867188 -2.441406 7.398438 -2.441406 L 7.308594 -2.441406 C 7.292969 -2.441406 5.363281 -2.335938 4.175781 -3.308594 C 3.875 -3.539062 3.628906 -3.824219 3.398438 -4.160156 L 1.238281 -2.691406 C 1.59375 -2.160156 2.035156 -1.679688 2.53125 -1.273438 C 4.140625 0.0351562 6.265625 0.175781 7.113281 0.175781 Z M 7.113281 0.175781 "/></g></g></g><g fill="#000000" fill-opacity="1"><g transform="translate(107.936182, 24.741828)"><g><path d="M 9.503906 -15.148438 C 8.300781 -15.148438 8.210938 -15.820312 7.007812 -15.734375 C 6.761719 -15.734375 6.566406 -15.664062 6.566406 -15.148438 L 4.992188 -15.148438 C 4.992188 -16.882812 5.945312 -17.628906 6.882812 -17.628906 C 8 -17.628906 8.300781 -16.992188 9.238281 -16.992188 C 9.574219 -16.992188 9.75 -17.308594 9.75 -17.628906 L 11.328125 -17.628906 C 11.328125 -17.449219 11.328125 -16.265625 10.726562 -15.644531 C 10.40625 -15.328125 9.980469 -15.148438 9.503906 -15.148438 Z M 7.859375 -14.335938 C 3.859375 -14.335938 0.621094 -11.097656 0.621094 -7.097656 C 0.621094 -3.097656 3.859375 0.140625 7.859375 0.140625 C 11.859375 0.140625 15.097656 -3.097656 15.097656 -7.097656 C 15.097656 -11.097656 11.859375 -14.335938 7.859375 -14.335938 Z M 7.859375 -11.628906 C 10.371094 -11.628906 12.140625 -9.59375 12.140625 -7.097656 C 12.140625 -4.601562 10.371094 -2.566406 7.859375 -2.566406 C 5.363281 -2.566406 3.59375 -4.601562 3.59375 -7.097656 C 3.59375 -9.59375 5.363281 -11.628906 7.859375 -11.628906 Z M 7.859375 -11.628906 "/></g></g></g><g fill="#000000" fill-opacity="1"><g transform="translate(123.650009, 24.741828)"><g><path d="M 9.449219 -11.539062 L 9.449219 -14.175781 L 1.238281 -14.175781 L 1.238281 0 L 9.449219 0 L 9.449219 -2.636719 L 3.894531 -2.636719 L 3.894531 -5.789062 L 7.203125 -5.789062 L 7.203125 -8.425781 L 3.894531 -8.425781 L 3.894531 -11.539062 Z M 9.449219 -11.539062 "/></g></g></g><g fill="#000000" fill-opacity="1"><g transform="translate(134.338242, 24.741828)"><g><path d="M 7.113281 0.175781 L 7.433594 0.175781 C 10.476562 0.160156 12.210938 -1.824219 12.335938 -3.789062 C 12.476562 -5.839844 10.917969 -8.140625 7.167969 -8.617188 L 7.132812 -8.617188 C 5.769531 -8.777344 4.355469 -9.449219 4.425781 -10.441406 C 4.476562 -11.148438 5.539062 -11.804688 7.46875 -11.714844 L 7.523438 -11.714844 C 8.582031 -11.714844 9.859375 -11.203125 10.511719 -10.726562 L 12.035156 -12.847656 C 11.027344 -13.574219 9.257812 -14.316406 7.558594 -14.316406 C 3.804688 -14.511719 1.980469 -12.601562 1.824219 -10.65625 C 1.734375 -9.523438 2.210938 -8.40625 3.132812 -7.558594 C 4.035156 -6.726562 5.328125 -6.195312 6.847656 -6.035156 C 8.917969 -5.75 9.789062 -4.796875 9.734375 -3.964844 C 9.679688 -3.203125 8.867188 -2.441406 7.398438 -2.441406 L 7.308594 -2.441406 C 7.292969 -2.441406 5.363281 -2.335938 4.175781 -3.308594 C 3.875 -3.539062 3.628906 -3.824219 3.398438 -4.160156 L 1.238281 -2.691406 C 1.59375 -2.160156 2.035156 -1.679688 2.53125 -1.273438 C 4.140625 0.0351562 6.265625 0.175781 7.113281 0.175781 Z M 7.113281 0.175781 "/></g></g></g><g clip-path="url(#d6327824cd)"><path fill="#000000" d="M 11.78125 15.730469 C 11.074219 15.339844 10.820312 14.460938 11.214844 13.761719 C 11.472656 13.304688 11.964844 13.019531 12.496094 13.019531 C 12.746094 13.019531 12.992188 13.082031 13.210938 13.203125 L 15.523438 14.46875 C 15.433594 14.136719 15.34375 13.894531 15.261719 13.71875 L 15.597656 13.671875 C 15.730469 13.984375 15.875 14.4375 16.003906 15.101562 L 13.050781 13.484375 C 12.5 13.183594 11.804688 13.378906 11.5 13.917969 C 11.195312 14.460938 11.390625 15.144531 11.941406 15.445312 L 16.847656 18.132812 C 17.023438 18.226562 17.214844 18.273438 17.402344 18.273438 C 17.617188 18.273438 17.828125 18.214844 18.015625 18.097656 C 18.367188 17.878906 18.570312 17.484375 18.542969 17.074219 C 18.433594 15.546875 18.222656 14.308594 17.90625 13.347656 C 17.582031 12.378906 17.152344 11.691406 16.609375 11.269531 C 16.046875 10.839844 15.539062 10.8125 15.285156 10.832031 C 15.269531 10.832031 15.253906 10.824219 15.234375 10.824219 L 9.726562 10.824219 C 9.671875 10.824219 9.625 10.847656 9.574219 10.855469 C 9.519531 10.855469 9.46875 10.875 9.414062 10.886719 C 9.371094 10.898438 9.324219 10.898438 9.285156 10.917969 C 9.226562 10.933594 9.167969 10.933594 9.113281 10.960938 L 6.523438 12.191406 L 4.65625 6.949219 C 4.445312 6.367188 3.789062 6.058594 3.203125 6.261719 C 2.609375 6.46875 2.292969 7.109375 2.503906 7.695312 L 4.796875 14.121094 C 4.902344 14.421875 5.136719 14.664062 5.4375 14.785156 C 5.578125 14.84375 5.722656 14.871094 5.871094 14.871094 C 6.042969 14.871094 6.210938 14.835938 6.367188 14.761719 L 8.625 13.6875 L 8.625 35.261719 C 8.625 36.21875 9.414062 36.996094 10.386719 36.996094 C 11.363281 36.996094 12.152344 36.21875 12.152344 35.261719 L 12.152344 22.59375 L 12.8125 22.59375 L 12.8125 35.261719 C 12.8125 36.21875 13.601562 36.996094 14.574219 36.996094 C 15.546875 36.996094 16.339844 36.21875 16.339844 35.261719 L 16.339844 18.222656 Z M 11.78125 15.730469 " fill-opacity="1" fill-rule="nonzero"/></g><g clip-path="url(#0556b21f8a)"><path fill="#000000" d="M 12.480469 10.023438 C 14.253906 10.023438 15.691406 8.609375 15.691406 6.867188 C 15.691406 5.121094 14.253906 3.707031 12.480469 3.707031 C 10.710938 3.707031 9.273438 5.121094 9.273438 6.867188 C 9.273438 8.609375 10.710938 10.023438 12.480469 10.023438 Z M 12.535156 7.527344 C 13.410156 7.597656 14.097656 7.949219 14.066406 8.308594 C 14.035156 8.667969 13.371094 8.597656 12.492188 8.527344 C 11.617188 8.453125 10.863281 8.410156 10.894531 8.050781 C 10.925781 7.6875 11.660156 7.453125 12.535156 7.527344 Z M 12.535156 7.527344 " fill-opacity="1" fill-rule="nonzero"/></g><g clip-path="url(#78105f44f0)"><path fill="#000000" d="M 9.59375 1.019531 L 9.515625 1.101562 C 9.464844 1.160156 9.410156 1.234375 9.355469 1.3125 C 9.304688 1.394531 9.25 1.484375 9.195312 1.589844 C 9.082031 1.792969 8.96875 2.035156 8.851562 2.320312 C 8.683594 2.769531 8.585938 3.058594 8.566406 3.195312 C 8.519531 3.394531 8.496094 3.566406 8.5 3.710938 C 8.523438 4.035156 8.621094 4.402344 8.796875 4.8125 C 8.84375 4.917969 8.894531 5.019531 8.945312 5.117188 C 9.082031 5.339844 9.183594 5.488281 9.25 5.554688 C 9.292969 5.789062 9.320312 5.921875 9.332031 5.949219 C 9.335938 5.957031 9.335938 5.953125 9.335938 5.945312 C 9.335938 5.953125 9.351562 5.984375 9.386719 6.035156 L 9.421875 6.070312 C 9.457031 6.09375 9.5 6.109375 9.550781 6.109375 C 10.648438 5.796875 11.25 5.367188 11.34375 4.816406 C 11.339844 4.695312 11.292969 4.589844 11.203125 4.503906 L 10.085938 3.652344 C 9.863281 3.453125 9.710938 3.265625 9.632812 3.089844 C 9.546875 2.898438 9.5 2.621094 9.488281 2.25 C 9.492188 1.96875 9.535156 1.578125 9.609375 1.082031 C 9.613281 1.03125 9.605469 1.007812 9.59375 1.019531 " fill-opacity="0.996" fill-rule="nonzero"/></g><g clip-path="url(#bd2c720515)"><path fill="#000000" d="M 15.480469 0.957031 L 15.5625 1.039062 C 15.613281 1.097656 15.667969 1.167969 15.722656 1.246094 C 15.78125 1.328125 15.835938 1.417969 15.894531 1.519531 C 16.011719 1.71875 16.128906 1.960938 16.253906 2.246094 C 16.433594 2.6875 16.535156 2.976562 16.558594 3.113281 C 16.609375 3.308594 16.636719 3.480469 16.636719 3.628906 C 16.621094 3.953125 16.53125 4.324219 16.367188 4.734375 C 16.324219 4.84375 16.277344 4.945312 16.222656 5.042969 C 16.09375 5.269531 15.996094 5.417969 15.929688 5.488281 C 15.894531 5.722656 15.871094 5.855469 15.859375 5.882812 C 15.855469 5.886719 15.855469 5.886719 15.851562 5.878906 C 15.855469 5.886719 15.839844 5.917969 15.804688 5.96875 L 15.773438 6.003906 C 15.738281 6.03125 15.695312 6.042969 15.644531 6.046875 C 14.539062 5.757812 13.929688 5.339844 13.820312 4.792969 C 13.824219 4.667969 13.867188 4.5625 13.953125 4.476562 L 15.050781 3.601562 C 15.269531 3.398438 15.414062 3.207031 15.488281 3.027344 C 15.570312 2.835938 15.613281 2.558594 15.617188 2.1875 C 15.605469 1.90625 15.554688 1.515625 15.464844 1.023438 C 15.464844 0.96875 15.46875 0.949219 15.480469 0.957031 " fill-opacity="0.996" fill-rule="nonzero"/></g><g clip-path="url(#976e0a12b0)"><path fill="#000000" d="M 37.746094 3.859375 L 37.742188 3.859375 L 37.601562 4.027344 C 37.507812 4.148438 37.410156 4.289062 37.3125 4.453125 C 37.214844 4.613281 37.117188 4.796875 37.015625 5 C 36.8125 5.40625 36.609375 5.898438 36.394531 6.46875 C 36.085938 7.363281 35.910156 7.949219 35.875 8.214844 C 35.789062 8.613281 35.75 8.960938 35.757812 9.25 C 35.796875 9.902344 35.972656 10.636719 36.292969 11.453125 C 36.375 11.667969 36.46875 11.871094 36.566406 12.066406 C 36.816406 12.511719 37 12.804688 37.121094 12.941406 C 37.195312 13.414062 37.246094 13.675781 37.269531 13.730469 C 37.273438 13.742188 37.277344 13.738281 37.277344 13.722656 C 37.273438 13.742188 37.304688 13.800781 37.367188 13.902344 L 37.429688 13.96875 C 37.492188 14.019531 37.570312 14.046875 37.664062 14.046875 C 39.664062 13.425781 40.75 12.5625 40.929688 11.464844 C 40.917969 11.21875 40.832031 11.007812 40.667969 10.839844 L 38.636719 9.128906 C 38.230469 8.734375 37.957031 8.359375 37.816406 8.003906 C 37.660156 7.625 37.570312 7.066406 37.546875 6.328125 C 37.5625 5.761719 37.636719 4.980469 37.773438 3.988281 C 37.773438 3.886719 37.765625 3.84375 37.746094 3.859375 " fill-opacity="0.996" fill-rule="nonzero"/></g><g clip-path="url(#c3223f6316)"><path fill="#000000" d="M 48.445312 3.738281 L 48.589844 3.902344 C 48.6875 4.019531 48.789062 4.160156 48.890625 4.320312 C 48.992188 4.480469 49.09375 4.660156 49.199219 4.863281 C 49.410156 5.265625 49.625 5.75 49.851562 6.316406 C 50.179688 7.203125 50.367188 7.785156 50.410156 8.050781 C 50.5 8.449219 50.546875 8.792969 50.546875 9.082031 C 50.523438 9.734375 50.359375 10.472656 50.0625 11.296875 C 49.980469 11.515625 49.890625 11.71875 49.796875 11.914062 C 49.558594 12.367188 49.378906 12.664062 49.261719 12.804688 C 49.199219 13.277344 49.152344 13.539062 49.132812 13.597656 C 49.128906 13.605469 49.125 13.605469 49.125 13.589844 C 49.125 13.605469 49.097656 13.667969 49.039062 13.769531 L 48.976562 13.835938 C 48.914062 13.890625 48.835938 13.917969 48.742188 13.921875 C 46.730469 13.34375 45.625 12.507812 45.425781 11.414062 C 45.429688 11.164062 45.511719 10.957031 45.671875 10.78125 L 47.667969 9.027344 C 48.0625 8.621094 48.328125 8.242188 48.460938 7.882812 C 48.609375 7.5 48.6875 6.941406 48.695312 6.203125 C 48.671875 5.632812 48.578125 4.855469 48.421875 3.867188 C 48.414062 3.765625 48.425781 3.722656 48.445312 3.738281 " fill-opacity="0.996" fill-rule="nonzero"/></g><g clip-path="url(#32616e0372)"><g clip-path="url(#bb94ded933)"><g clip-path="url(#623578489f)"><path fill="#000000" d="M 21.507812 32.539062 L 21.519531 32.539062 L 21.679688 32.546875 C 21.320312 32.484375 20.957031 32.355469 20.597656 32.160156 C 20.390625 32.054688 20.167969 31.863281 19.929688 31.589844 C 19.496094 30.992188 19.273438 30.410156 19.269531 29.847656 C 19.265625 29.371094 19.375 28.792969 19.59375 28.101562 C 19.5625 28.101562 20.078125 26.871094 21.136719 24.417969 C 21.238281 24.171875 21.335938 23.886719 21.421875 23.554688 C 21.597656 22.855469 21.597656 22.125 21.425781 21.359375 C 20.996094 19.863281 19.871094 19.039062 18.046875 18.875 C 16.53125 18.859375 15.234375 19.175781 14.152344 19.824219 C 13.292969 20.320312 12.53125 20.890625 11.867188 21.535156 C 11.496094 21.910156 11.257812 22.183594 11.15625 22.355469 C 11.101562 22.492188 11.09375 22.625 11.140625 22.753906 C 11.246094 23.039062 11.433594 23.167969 11.699219 23.132812 C 12.082031 22.886719 12.765625 22.332031 13.753906 21.464844 C 14.109375 21.1875 14.386719 20.992188 14.578125 20.875 C 15.265625 20.433594 15.929688 20.144531 16.566406 20.011719 C 18.144531 19.636719 19.332031 19.816406 20.128906 20.558594 C 20.726562 21.140625 20.972656 22.003906 20.871094 23.144531 C 20.835938 23.402344 20.753906 23.753906 20.617188 24.199219 C 19.742188 26.53125 19.28125 27.824219 19.234375 28.070312 C 19.042969 28.808594 18.96875 29.472656 19.023438 30.066406 C 19.347656 31.507812 20.175781 32.332031 21.507812 32.539062 " fill-opacity="1" fill-rule="nonzero"/></g></g></g><g clip-path="url(#8d4cf44bd0)"><g clip-path="url(#ef9356ebeb)"><g clip-path="url(#127162c7a2)"><path fill="#000000" d="M 21.207031 32.507812 C 21.207031 32.496094 21.207031 32.484375 21.210938 32.472656 C 21.210938 32.480469 21.210938 32.484375 21.210938 32.488281 L 21.210938 32.507812 L 21.207031 32.507812 M 20.691406 33.144531 L 20.695312 33.144531 C 20.84375 33.128906 21.03125 33.085938 21.265625 33.015625 C 21.417969 32.980469 21.777344 32.855469 22.351562 32.640625 C 22.765625 32.457031 22.980469 32.324219 22.996094 32.242188 C 23.007812 32.207031 22.992188 32.1875 22.945312 32.183594 C 22.660156 32.21875 22.441406 32.238281 22.289062 32.230469 C 22.15625 32.230469 22 32.207031 21.828125 32.15625 C 21.738281 32.125 21.621094 32.066406 21.476562 31.972656 C 21.363281 31.902344 21.230469 31.789062 21.082031 31.636719 C 21.058594 31.621094 21.042969 31.613281 21.035156 31.613281 C 21.019531 31.609375 21.015625 31.621094 21.019531 31.644531 C 21.160156 32.113281 21.222656 32.378906 21.207031 32.445312 C 21 32.734375 20.816406 32.957031 20.667969 33.113281 C 20.65625 33.136719 20.664062 33.144531 20.691406 33.144531 " fill-opacity="1" fill-rule="nonzero"/></g></g></g><g fill="#ff3131" fill-opacity="1"><g transform="translate(109.91891, 30.593944)"><g><path d="M 3.878906 -3.191406 C 3.878906 -3.902344 3.460938 -4.472656 2.316406 -4.472656 L 0.390625 -4.472656 L 0.390625 0 L 2.316406 0 C 3.496094 0 3.878906 -0.761719 3.878906 -1.464844 C 3.878906 -1.796875 3.792969 -2.097656 3.578125 -2.324219 C 3.796875 -2.550781 3.878906 -2.855469 3.878906 -3.191406 Z M 1.230469 -3.640625 L 2.605469 -3.640625 C 2.867188 -3.640625 3.046875 -3.410156 3.046875 -3.191406 C 3.046875 -3.003906 2.898438 -2.746094 2.605469 -2.746094 L 1.230469 -2.746094 Z M 2.523438 -0.839844 L 1.230469 -0.839844 L 1.230469 -1.914062 L 2.523438 -1.914062 C 2.777344 -1.914062 3.046875 -1.746094 3.046875 -1.375 C 3.046875 -1.007812 2.769531 -0.839844 2.523438 -0.839844 Z M 2.523438 -0.839844 "/></g></g></g><g fill="#ff3131" fill-opacity="1"><g transform="translate(114.190992, 30.593944)"><g><path d="M 2.984375 -3.644531 L 2.984375 -4.480469 L 0.390625 -4.480469 L 0.390625 0 L 2.984375 0 L 2.984375 -0.832031 L 1.230469 -0.832031 L 1.230469 -1.828125 L 2.277344 -1.828125 L 2.277344 -2.660156 L 1.230469 -2.660156 L 1.230469 -3.644531 Z M 2.984375 -3.644531 "/></g></g></g><g fill="#ff3131" fill-opacity="1"><g transform="translate(117.568397, 30.593944)"><g><path d="M 3.753906 -4.472656 L 0.390625 -4.472656 L 0.390625 -3.640625 L 1.65625 -3.640625 L 1.65625 0 L 2.488281 0 L 2.488281 -3.640625 L 3.753906 -3.640625 Z M 3.753906 -4.472656 "/></g></g></g><g fill="#ff3131" fill-opacity="1"><g transform="translate(121.71187, 30.593944)"><g><path d="M 3.03125 0 L 3.902344 0 L 2.589844 -4.460938 L 2.589844 -4.472656 L 1.710938 -4.472656 L 0.390625 0 L 1.269531 0 L 1.597656 -1.113281 L 2.699219 -1.113281 Z M 1.84375 -1.945312 L 2.152344 -2.984375 L 2.453125 -1.945312 Z M 1.84375 -1.945312 "/></g></g></g></svg>