<svg xmlns="http://www.w3.org/2000/svg" xmlns:xlink="http://www.w3.org/1999/xlink" width="200" zoomAndPan="magnify" viewBox="0 0 150 60" height="80" preserveAspectRatio="xMidYMid meet" version="1.0"><defs><g/></defs><g fill="#ffffff" fill-opacity="1"><g transform="translate(-0.226128, 35.725192)"><g><path d="M 4.375 -16.1875 C 5.613281 -16.1875 6.523438 -15.820312 7.109375 -15.09375 C 7.703125 -14.363281 8 -13.382812 8 -12.15625 L 8 -10.71875 L 6.296875 -10.71875 L 6.296875 -12.25 C 6.296875 -12.988281 6.144531 -13.554688 5.84375 -13.953125 C 5.550781 -14.359375 5.078125 -14.5625 4.421875 -14.5625 C 3.773438 -14.5625 3.300781 -14.359375 3 -13.953125 C 2.695312 -13.554688 2.546875 -12.988281 2.546875 -12.25 L 2.546875 -3.78125 C 2.546875 -3.050781 2.695312 -2.484375 3 -2.078125 C 3.300781 -1.671875 3.773438 -1.46875 4.421875 -1.46875 C 5.078125 -1.46875 5.550781 -1.671875 5.84375 -2.078125 C 6.144531 -2.484375 6.296875 -3.050781 6.296875 -3.78125 L 6.296875 -5.859375 L 8 -5.859375 L 8 -3.875 C 8 -2.644531 7.703125 -1.664062 7.109375 -0.9375 C 6.523438 -0.207031 5.613281 0.15625 4.375 0.15625 C 3.15625 0.15625 2.25 -0.207031 1.65625 -0.9375 C 1.070312 -1.664062 0.78125 -2.644531 0.78125 -3.875 L 0.78125 -12.15625 C 0.78125 -12.769531 0.851562 -13.320312 1 -13.8125 C 1.144531 -14.3125 1.363281 -14.738281 1.65625 -15.09375 C 1.957031 -15.445312 2.332031 -15.71875 2.78125 -15.90625 C 3.226562 -16.09375 3.757812 -16.1875 4.375 -16.1875 Z M 4.375 -16.1875 "/></g></g></g><g fill="#ffffff" fill-opacity="1"><g transform="translate(8.476151, 35.725192)"><g><path d="M 0.78125 -12.15625 C 0.78125 -13.394531 1.082031 -14.375 1.6875 -15.09375 C 2.289062 -15.820312 3.207031 -16.1875 4.4375 -16.1875 C 5.675781 -16.1875 6.597656 -15.820312 7.203125 -15.09375 C 7.816406 -14.375 8.125 -13.394531 8.125 -12.15625 L 8.125 -3.875 C 8.125 -2.644531 7.816406 -1.664062 7.203125 -0.9375 C 6.597656 -0.207031 5.675781 0.15625 4.4375 0.15625 C 3.207031 0.15625 2.289062 -0.207031 1.6875 -0.9375 C 1.082031 -1.664062 0.78125 -2.644531 0.78125 -3.875 Z M 2.546875 -3.78125 C 2.546875 -3.050781 2.703125 -2.484375 3.015625 -2.078125 C 3.328125 -1.671875 3.800781 -1.46875 4.4375 -1.46875 C 5.09375 -1.46875 5.570312 -1.671875 5.875 -2.078125 C 6.1875 -2.484375 6.34375 -3.050781 6.34375 -3.78125 L 6.34375 -12.25 C 6.34375 -12.988281 6.1875 -13.554688 5.875 -13.953125 C 5.570312 -14.359375 5.09375 -14.5625 4.4375 -14.5625 C 3.800781 -14.5625 3.328125 -14.359375 3.015625 -13.953125 C 2.703125 -13.554688 2.546875 -12.988281 2.546875 -12.25 Z M 2.546875 -3.78125 "/></g></g></g><g fill="#ffffff" fill-opacity="1"><g transform="translate(17.384546, 35.725192)"><g><path d="M 2.5 0 L 0.890625 0 L 0.890625 -16.03125 L 3.15625 -16.03125 L 6.875 -4.4375 L 6.875 -16.03125 L 8.453125 -16.03125 L 8.453125 0 L 6.59375 0 L 2.5 -12.96875 Z M 2.5 0 "/></g></g></g><g fill="#ffffff" fill-opacity="1"><g transform="translate(26.750949, 35.725192)"><g><path d="M 6.390625 -8.5625 L 6.390625 -6.9375 L 2.703125 -6.9375 L 2.703125 0 L 0.921875 0 L 0.921875 -16.03125 L 7.28125 -16.03125 L 7.28125 -14.40625 L 2.703125 -14.40625 L 2.703125 -8.5625 Z M 6.390625 -8.5625 "/></g></g></g><g fill="#ffffff" fill-opacity="1"><g transform="translate(34.537194, 35.725192)"><g><path d="M 2.703125 -16.03125 L 2.703125 0 L 0.921875 0 L 0.921875 -16.03125 Z M 2.703125 -16.03125 "/></g></g></g><g fill="#ffffff" fill-opacity="1"><g transform="translate(38.155519, 35.725192)"><g><path d="M 4.28125 -16.1875 C 5.5 -16.1875 6.398438 -15.820312 6.984375 -15.09375 C 7.566406 -14.375 7.859375 -13.40625 7.859375 -12.1875 L 7.859375 -11.75 L 6.15625 -11.75 L 6.15625 -12.28125 C 6.15625 -13.007812 6.007812 -13.570312 5.71875 -13.96875 C 5.4375 -14.363281 4.972656 -14.5625 4.328125 -14.5625 C 3.691406 -14.5625 3.226562 -14.363281 2.9375 -13.96875 C 2.644531 -13.570312 2.5 -13.015625 2.5 -12.296875 C 2.5 -11.703125 2.628906 -11.179688 2.890625 -10.734375 C 3.160156 -10.296875 3.492188 -9.890625 3.890625 -9.515625 C 4.285156 -9.140625 4.71875 -8.769531 5.1875 -8.40625 C 5.65625 -8.050781 6.085938 -7.660156 6.484375 -7.234375 C 6.878906 -6.804688 7.207031 -6.320312 7.46875 -5.78125 C 7.738281 -5.238281 7.875 -4.59375 7.875 -3.84375 C 7.875 -2.625 7.578125 -1.648438 6.984375 -0.921875 C 6.398438 -0.203125 5.492188 0.15625 4.265625 0.15625 C 3.023438 0.15625 2.113281 -0.203125 1.53125 -0.921875 C 0.957031 -1.648438 0.671875 -2.625 0.671875 -3.84375 L 0.671875 -4.765625 L 2.34375 -4.765625 L 2.34375 -3.75 C 2.34375 -3.019531 2.492188 -2.457031 2.796875 -2.0625 C 3.097656 -1.664062 3.570312 -1.46875 4.21875 -1.46875 C 4.851562 -1.46875 5.320312 -1.664062 5.625 -2.0625 C 5.9375 -2.457031 6.09375 -3.019531 6.09375 -3.75 C 6.09375 -4.351562 5.957031 -4.867188 5.6875 -5.296875 C 5.425781 -5.734375 5.09375 -6.140625 4.6875 -6.515625 C 4.289062 -6.890625 3.863281 -7.253906 3.40625 -7.609375 C 2.945312 -7.972656 2.519531 -8.367188 2.125 -8.796875 C 1.726562 -9.222656 1.394531 -9.707031 1.125 -10.25 C 0.863281 -10.789062 0.734375 -11.4375 0.734375 -12.1875 C 0.734375 -13.425781 1.019531 -14.398438 1.59375 -15.109375 C 2.175781 -15.828125 3.070312 -16.1875 4.28125 -16.1875 Z M 4.28125 -16.1875 "/></g></g></g><g fill="#ffffff" fill-opacity="1"><g transform="translate(46.674588, 35.725192)"><g><path d="M 4.28125 -16.1875 C 5.5 -16.1875 6.398438 -15.820312 6.984375 -15.09375 C 7.566406 -14.375 7.859375 -13.40625 7.859375 -12.1875 L 7.859375 -11.75 L 6.15625 -11.75 L 6.15625 -12.28125 C 6.15625 -13.007812 6.007812 -13.570312 5.71875 -13.96875 C 5.4375 -14.363281 4.972656 -14.5625 4.328125 -14.5625 C 3.691406 -14.5625 3.226562 -14.363281 2.9375 -13.96875 C 2.644531 -13.570312 2.5 -13.015625 2.5 -12.296875 C 2.5 -11.703125 2.628906 -11.179688 2.890625 -10.734375 C 3.160156 -10.296875 3.492188 -9.890625 3.890625 -9.515625 C 4.285156 -9.140625 4.71875 -8.769531 5.1875 -8.40625 C 5.65625 -8.050781 6.085938 -7.660156 6.484375 -7.234375 C 6.878906 -6.804688 7.207031 -6.320312 7.46875 -5.78125 C 7.738281 -5.238281 7.875 -4.59375 7.875 -3.84375 C 7.875 -2.625 7.578125 -1.648438 6.984375 -0.921875 C 6.398438 -0.203125 5.492188 0.15625 4.265625 0.15625 C 3.023438 0.15625 2.113281 -0.203125 1.53125 -0.921875 C 0.957031 -1.648438 0.671875 -2.625 0.671875 -3.84375 L 0.671875 -4.765625 L 2.34375 -4.765625 L 2.34375 -3.75 C 2.34375 -3.019531 2.492188 -2.457031 2.796875 -2.0625 C 3.097656 -1.664062 3.570312 -1.46875 4.21875 -1.46875 C 4.851562 -1.46875 5.320312 -1.664062 5.625 -2.0625 C 5.9375 -2.457031 6.09375 -3.019531 6.09375 -3.75 C 6.09375 -4.351562 5.957031 -4.867188 5.6875 -5.296875 C 5.425781 -5.734375 5.09375 -6.140625 4.6875 -6.515625 C 4.289062 -6.890625 3.863281 -7.253906 3.40625 -7.609375 C 2.945312 -7.972656 2.519531 -8.367188 2.125 -8.796875 C 1.726562 -9.222656 1.394531 -9.707031 1.125 -10.25 C 0.863281 -10.789062 0.734375 -11.4375 0.734375 -12.1875 C 0.734375 -13.425781 1.019531 -14.398438 1.59375 -15.109375 C 2.175781 -15.828125 3.070312 -16.1875 4.28125 -16.1875 Z M 4.28125 -16.1875 "/></g></g></g><g fill="#ffffff" fill-opacity="1"><g transform="translate(55.193657, 35.725192)"><g><path d="M 7.28125 -18.375 C 7.113281 -17.914062 6.890625 -17.582031 6.609375 -17.375 C 6.328125 -17.164062 6.007812 -17.0625 5.65625 -17.0625 C 5.425781 -17.0625 5.222656 -17.09375 5.046875 -17.15625 C 4.867188 -17.226562 4.695312 -17.304688 4.53125 -17.390625 C 4.363281 -17.472656 4.203125 -17.550781 4.046875 -17.625 C 3.898438 -17.695312 3.734375 -17.734375 3.546875 -17.734375 C 3.335938 -17.734375 3.15625 -17.679688 3 -17.578125 C 2.84375 -17.484375 2.707031 -17.304688 2.59375 -17.046875 L 1.6875 -17.65625 C 1.894531 -18.132812 2.140625 -18.472656 2.421875 -18.671875 C 2.710938 -18.867188 3.035156 -18.972656 3.390625 -18.984375 C 3.617188 -18.984375 3.820312 -18.945312 4 -18.875 C 4.1875 -18.8125 4.359375 -18.734375 4.515625 -18.640625 C 4.679688 -18.554688 4.84375 -18.476562 5 -18.40625 C 5.164062 -18.332031 5.332031 -18.296875 5.5 -18.296875 C 5.695312 -18.316406 5.867188 -18.375 6.015625 -18.46875 C 6.160156 -18.570312 6.289062 -18.742188 6.40625 -18.984375 Z M 4.4375 -16.1875 C 5.675781 -16.1875 6.597656 -15.820312 7.203125 -15.09375 C 7.816406 -14.375 8.125 -13.394531 8.125 -12.15625 L 8.125 -3.875 C 8.125 -2.644531 7.816406 -1.664062 7.203125 -0.9375 C 6.597656 -0.207031 5.675781 0.15625 4.4375 0.15625 C 3.207031 0.15625 2.289062 -0.207031 1.6875 -0.9375 C 1.082031 -1.664062 0.78125 -2.644531 0.78125 -3.875 L 0.78125 -12.15625 C 0.78125 -13.394531 1.082031 -14.375 1.6875 -15.09375 C 2.289062 -15.820312 3.207031 -16.1875 4.4375 -16.1875 Z M 4.4375 -14.5625 C 3.800781 -14.5625 3.328125 -14.359375 3.015625 -13.953125 C 2.703125 -13.554688 2.546875 -12.988281 2.546875 -12.25 L 2.546875 -3.78125 C 2.546875 -3.050781 2.703125 -2.484375 3.015625 -2.078125 C 3.328125 -1.671875 3.800781 -1.46875 4.4375 -1.46875 C 5.09375 -1.46875 5.570312 -1.671875 5.875 -2.078125 C 6.1875 -2.484375 6.34375 -3.050781 6.34375 -3.78125 L 6.34375 -12.25 C 6.34375 -12.988281 6.1875 -13.554688 5.875 -13.953125 C 5.570312 -14.359375 5.09375 -14.5625 4.4375 -14.5625 Z M 4.4375 -14.5625 "/></g></g></g><g fill="#ffffff" fill-opacity="1"><g transform="translate(64.102052, 35.725192)"><g><path d="M 6.625 -8.9375 L 6.625 -7.328125 L 2.703125 -7.328125 L 2.703125 -1.625 L 7.515625 -1.625 L 7.515625 0 L 0.921875 0 L 0.921875 -16.03125 L 7.515625 -16.03125 L 7.515625 -14.40625 L 2.703125 -14.40625 L 2.703125 -8.9375 Z M 6.625 -8.9375 "/></g></g></g><g fill="#ffffff" fill-opacity="1"><g transform="translate(72.346323, 35.725192)"><g><path d="M 4.28125 -16.1875 C 5.5 -16.1875 6.398438 -15.820312 6.984375 -15.09375 C 7.566406 -14.375 7.859375 -13.40625 7.859375 -12.1875 L 7.859375 -11.75 L 6.15625 -11.75 L 6.15625 -12.28125 C 6.15625 -13.007812 6.007812 -13.570312 5.71875 -13.96875 C 5.4375 -14.363281 4.972656 -14.5625 4.328125 -14.5625 C 3.691406 -14.5625 3.226562 -14.363281 2.9375 -13.96875 C 2.644531 -13.570312 2.5 -13.015625 2.5 -12.296875 C 2.5 -11.703125 2.628906 -11.179688 2.890625 -10.734375 C 3.160156 -10.296875 3.492188 -9.890625 3.890625 -9.515625 C 4.285156 -9.140625 4.71875 -8.769531 5.1875 -8.40625 C 5.65625 -8.050781 6.085938 -7.660156 6.484375 -7.234375 C 6.878906 -6.804688 7.207031 -6.320312 7.46875 -5.78125 C 7.738281 -5.238281 7.875 -4.59375 7.875 -3.84375 C 7.875 -2.625 7.578125 -1.648438 6.984375 -0.921875 C 6.398438 -0.203125 5.492188 0.15625 4.265625 0.15625 C 3.023438 0.15625 2.113281 -0.203125 1.53125 -0.921875 C 0.957031 -1.648438 0.671875 -2.625 0.671875 -3.84375 L 0.671875 -4.765625 L 2.34375 -4.765625 L 2.34375 -3.75 C 2.34375 -3.019531 2.492188 -2.457031 2.796875 -2.0625 C 3.097656 -1.664062 3.570312 -1.46875 4.21875 -1.46875 C 4.851562 -1.46875 5.320312 -1.664062 5.625 -2.0625 C 5.9375 -2.457031 6.09375 -3.019531 6.09375 -3.75 C 6.09375 -4.351562 5.957031 -4.867188 5.6875 -5.296875 C 5.425781 -5.734375 5.09375 -6.140625 4.6875 -6.515625 C 4.289062 -6.890625 3.863281 -7.253906 3.40625 -7.609375 C 2.945312 -7.972656 2.519531 -8.367188 2.125 -8.796875 C 1.726562 -9.222656 1.394531 -9.707031 1.125 -10.25 C 0.863281 -10.789062 0.734375 -11.4375 0.734375 -12.1875 C 0.734375 -13.425781 1.019531 -14.398438 1.59375 -15.109375 C 2.175781 -15.828125 3.070312 -16.1875 4.28125 -16.1875 Z M 4.28125 -16.1875 "/></g></g></g><g fill="#ffffff" fill-opacity="1"><g transform="translate(80.865391, 35.725192)"><g/></g></g><g fill="#ffffff" fill-opacity="1"><g transform="translate(84.414999, 35.725192)"><g><path d="M 4.671875 -16.03125 C 5.921875 -16.03125 6.835938 -15.675781 7.421875 -14.96875 C 8.015625 -14.257812 8.3125 -13.285156 8.3125 -12.046875 L 8.3125 -3.96875 C 8.3125 -2.726562 8.015625 -1.753906 7.421875 -1.046875 C 6.835938 -0.347656 5.921875 0 4.671875 0 L 0.921875 0 L 0.921875 -16.03125 Z M 4.65625 -1.625 C 5.289062 -1.625 5.765625 -1.816406 6.078125 -2.203125 C 6.390625 -2.597656 6.546875 -3.160156 6.546875 -3.890625 L 6.546875 -12.140625 C 6.546875 -12.867188 6.390625 -13.425781 6.078125 -13.8125 C 5.765625 -14.207031 5.28125 -14.40625 4.625 -14.40625 L 2.703125 -14.40625 L 2.703125 -1.625 Z M 4.65625 -1.625 "/></g></g></g><g fill="#ffffff" fill-opacity="1"><g transform="translate(93.483699, 35.725192)"><g><path d="M 6.625 -8.9375 L 6.625 -7.328125 L 2.703125 -7.328125 L 2.703125 -1.625 L 7.515625 -1.625 L 7.515625 0 L 0.921875 0 L 0.921875 -16.03125 L 7.515625 -16.03125 L 7.515625 -14.40625 L 2.703125 -14.40625 L 2.703125 -8.9375 Z M 6.625 -8.9375 "/></g></g></g><g fill="#ffffff" fill-opacity="1"><g transform="translate(101.72797, 35.725192)"><g/></g></g><g fill="#ffffff" fill-opacity="1"><g transform="translate(105.277577, 35.725192)"><g><path d="M 4.375 -16.1875 C 5.613281 -16.1875 6.523438 -15.820312 7.109375 -15.09375 C 7.703125 -14.363281 8 -13.382812 8 -12.15625 L 8 -10.71875 L 6.296875 -10.71875 L 6.296875 -12.25 C 6.296875 -12.988281 6.144531 -13.554688 5.84375 -13.953125 C 5.550781 -14.359375 5.078125 -14.5625 4.421875 -14.5625 C 3.773438 -14.5625 3.300781 -14.359375 3 -13.953125 C 2.695312 -13.554688 2.546875 -12.988281 2.546875 -12.25 L 2.546875 -3.78125 C 2.546875 -3.050781 2.695312 -2.484375 3 -2.078125 C 3.300781 -1.671875 3.773438 -1.46875 4.421875 -1.46875 C 5.078125 -1.46875 5.550781 -1.671875 5.84375 -2.078125 C 6.144531 -2.484375 6.296875 -3.050781 6.296875 -3.78125 L 6.296875 -5.859375 L 8 -5.859375 L 8 -3.875 C 8 -2.644531 7.703125 -1.664062 7.109375 -0.9375 C 6.523438 -0.207031 5.613281 0.15625 4.375 0.15625 C 3.15625 0.15625 2.25 -0.207031 1.65625 -0.9375 C 1.070312 -1.664062 0.78125 -2.644531 0.78125 -3.875 L 0.78125 -12.15625 C 0.78125 -12.769531 0.851562 -13.320312 1 -13.8125 C 1.144531 -14.3125 1.363281 -14.738281 1.65625 -15.09375 C 1.957031 -15.445312 2.332031 -15.71875 2.78125 -15.90625 C 3.226562 -16.09375 3.757812 -16.1875 4.375 -16.1875 Z M 4.375 -16.1875 "/></g></g></g><g fill="#ffffff" fill-opacity="1"><g transform="translate(113.979856, 35.725192)"><g><path d="M 0.78125 -12.15625 C 0.78125 -13.394531 1.082031 -14.375 1.6875 -15.09375 C 2.289062 -15.820312 3.207031 -16.1875 4.4375 -16.1875 C 5.675781 -16.1875 6.597656 -15.820312 7.203125 -15.09375 C 7.816406 -14.375 8.125 -13.394531 8.125 -12.15625 L 8.125 -3.875 C 8.125 -2.644531 7.816406 -1.664062 7.203125 -0.9375 C 6.597656 -0.207031 5.675781 0.15625 4.4375 0.15625 C 3.207031 0.15625 2.289062 -0.207031 1.6875 -0.9375 C 1.082031 -1.664062 0.78125 -2.644531 0.78125 -3.875 Z M 2.546875 -3.78125 C 2.546875 -3.050781 2.703125 -2.484375 3.015625 -2.078125 C 3.328125 -1.671875 3.800781 -1.46875 4.4375 -1.46875 C 5.09375 -1.46875 5.570312 -1.671875 5.875 -2.078125 C 6.1875 -2.484375 6.34375 -3.050781 6.34375 -3.78125 L 6.34375 -12.25 C 6.34375 -12.988281 6.1875 -13.554688 5.875 -13.953125 C 5.570312 -14.359375 5.09375 -14.5625 4.4375 -14.5625 C 3.800781 -14.5625 3.328125 -14.359375 3.015625 -13.953125 C 2.703125 -13.554688 2.546875 -12.988281 2.546875 -12.25 Z M 2.546875 -3.78125 "/></g></g></g><g fill="#ffffff" fill-opacity="1"><g transform="translate(122.888251, 35.725192)"><g><path d="M 4.484375 -16.03125 C 5.753906 -16.03125 6.664062 -15.71875 7.21875 -15.09375 C 7.78125 -14.46875 8.0625 -13.5625 8.0625 -12.375 L 8.0625 -11.0625 C 8.0625 -10.175781 7.898438 -9.457031 7.578125 -8.90625 C 7.253906 -8.351562 6.75 -7.972656 6.0625 -7.765625 C 6.800781 -7.546875 7.320312 -7.148438 7.625 -6.578125 C 7.925781 -6.015625 8.078125 -5.296875 8.078125 -4.421875 L 8.078125 -1.921875 C 8.078125 -1.566406 8.09375 -1.222656 8.125 -0.890625 C 8.15625 -0.566406 8.25 -0.269531 8.40625 0 L 6.59375 0 C 6.488281 -0.226562 6.410156 -0.472656 6.359375 -0.734375 C 6.316406 -1.003906 6.296875 -1.410156 6.296875 -1.953125 L 6.296875 -4.46875 C 6.296875 -5.363281 6.09375 -5.984375 5.6875 -6.328125 C 5.28125 -6.671875 4.707031 -6.84375 3.96875 -6.84375 L 2.703125 -6.84375 L 2.703125 0 L 0.921875 0 L 0.921875 -16.03125 Z M 4.03125 -8.46875 C 4.75 -8.46875 5.304688 -8.617188 5.703125 -8.921875 C 6.097656 -9.222656 6.296875 -9.804688 6.296875 -10.671875 L 6.296875 -12.203125 C 6.296875 -12.941406 6.15625 -13.492188 5.875 -13.859375 C 5.59375 -14.222656 5.113281 -14.40625 4.4375 -14.40625 L 2.703125 -14.40625 L 2.703125 -8.46875 Z M 4.03125 -8.46875 "/></g></g></g><g fill="#ffffff" fill-opacity="1"><g transform="translate(131.91114, 35.725192)"><g><path d="M 2.5 0 L 0.890625 0 L 0.890625 -16.03125 L 3.15625 -16.03125 L 6.875 -4.4375 L 6.875 -16.03125 L 8.453125 -16.03125 L 8.453125 0 L 6.59375 0 L 2.5 -12.96875 Z M 2.5 0 "/></g></g></g><g fill="#ffffff" fill-opacity="1"><g transform="translate(141.277543, 35.725192)"><g><path d="M 0.78125 -12.15625 C 0.78125 -13.394531 1.082031 -14.375 1.6875 -15.09375 C 2.289062 -15.820312 3.207031 -16.1875 4.4375 -16.1875 C 5.675781 -16.1875 6.597656 -15.820312 7.203125 -15.09375 C 7.816406 -14.375 8.125 -13.394531 8.125 -12.15625 L 8.125 -3.875 C 8.125 -2.644531 7.816406 -1.664062 7.203125 -0.9375 C 6.597656 -0.207031 5.675781 0.15625 4.4375 0.15625 C 3.207031 0.15625 2.289062 -0.207031 1.6875 -0.9375 C 1.082031 -1.664062 0.78125 -2.644531 0.78125 -3.875 Z M 2.546875 -3.78125 C 2.546875 -3.050781 2.703125 -2.484375 3.015625 -2.078125 C 3.328125 -1.671875 3.800781 -1.46875 4.4375 -1.46875 C 5.09375 -1.46875 5.570312 -1.671875 5.875 -2.078125 C 6.1875 -2.484375 6.34375 -3.050781 6.34375 -3.78125 L 6.34375 -12.25 C 6.34375 -12.988281 6.1875 -13.554688 5.875 -13.953125 C 5.570312 -14.359375 5.09375 -14.5625 4.4375 -14.5625 C 3.800781 -14.5625 3.328125 -14.359375 3.015625 -13.953125 C 2.703125 -13.554688 2.546875 -12.988281 2.546875 -12.25 Z M 2.546875 -3.78125 "/></g></g></g></svg>