<svg xmlns="http://www.w3.org/2000/svg" xmlns:xlink="http://www.w3.org/1999/xlink" width="200" zoomAndPan="magnify" viewBox="0 0 150 37.5" height="50" preserveAspectRatio="xMidYMid meet" version="1.0"><defs><g/></defs><g fill="#ffffff" fill-opacity="1"><g transform="translate(0.986842, 24.927147)"><g><path d="M 4.296875 -15.921875 C 5.515625 -15.921875 6.410156 -15.5625 6.984375 -14.84375 C 7.566406 -14.125 7.859375 -13.164062 7.859375 -11.96875 L 7.859375 -10.546875 L 6.203125 -10.546875 L 6.203125 -12.046875 C 6.203125 -12.773438 6.050781 -13.335938 5.75 -13.734375 C 5.457031 -14.128906 4.988281 -14.328125 4.34375 -14.328125 C 3.71875 -14.328125 3.253906 -14.128906 2.953125 -13.734375 C 2.648438 -13.335938 2.5 -12.773438 2.5 -12.046875 L 2.5 -3.71875 C 2.5 -3 2.648438 -2.4375 2.953125 -2.03125 C 3.253906 -1.632812 3.71875 -1.4375 4.34375 -1.4375 C 4.988281 -1.4375 5.457031 -1.632812 5.75 -2.03125 C 6.050781 -2.4375 6.203125 -3 6.203125 -3.71875 L 6.203125 -5.765625 L 7.859375 -5.765625 L 7.859375 -3.8125 C 7.859375 -2.601562 7.566406 -1.640625 6.984375 -0.921875 C 6.410156 -0.203125 5.515625 0.15625 4.296875 0.15625 C 3.097656 0.15625 2.207031 -0.203125 1.625 -0.921875 C 1.050781 -1.640625 0.765625 -2.601562 0.765625 -3.8125 L 0.765625 -11.96875 C 0.765625 -12.5625 0.832031 -13.101562 0.96875 -13.59375 C 1.113281 -14.082031 1.332031 -14.5 1.625 -14.84375 C 1.925781 -15.1875 2.296875 -15.453125 2.734375 -15.640625 C 3.179688 -15.828125 3.703125 -15.921875 4.296875 -15.921875 Z M 4.296875 -15.921875 "/></g></g></g><g fill="#ffffff" fill-opacity="1"><g transform="translate(9.549828, 24.927147)"><g><path d="M 0.765625 -11.96875 C 0.765625 -13.1875 1.0625 -14.148438 1.65625 -14.859375 C 2.25 -15.566406 3.15625 -15.921875 4.375 -15.921875 C 5.59375 -15.921875 6.5 -15.566406 7.09375 -14.859375 C 7.695312 -14.148438 8 -13.1875 8 -11.96875 L 8 -3.8125 C 8 -2.601562 7.695312 -1.640625 7.09375 -0.921875 C 6.5 -0.203125 5.59375 0.15625 4.375 0.15625 C 3.15625 0.15625 2.25 -0.203125 1.65625 -0.921875 C 1.0625 -1.640625 0.765625 -2.601562 0.765625 -3.8125 Z M 2.5 -3.71875 C 2.5 -3 2.648438 -2.4375 2.953125 -2.03125 C 3.265625 -1.632812 3.738281 -1.4375 4.375 -1.4375 C 5.019531 -1.4375 5.488281 -1.632812 5.78125 -2.03125 C 6.082031 -2.4375 6.234375 -3 6.234375 -3.71875 L 6.234375 -12.046875 C 6.234375 -12.773438 6.082031 -13.335938 5.78125 -13.734375 C 5.488281 -14.128906 5.019531 -14.328125 4.375 -14.328125 C 3.738281 -14.328125 3.265625 -14.128906 2.953125 -13.734375 C 2.648438 -13.335938 2.5 -12.773438 2.5 -12.046875 Z M 2.5 -3.71875 "/></g></g></g><g fill="#ffffff" fill-opacity="1"><g transform="translate(18.315623, 24.927147)"><g><path d="M 2.453125 0 L 0.875 0 L 0.875 -15.765625 L 3.109375 -15.765625 L 6.765625 -4.375 L 6.765625 -15.765625 L 8.3125 -15.765625 L 8.3125 0 L 6.484375 0 L 2.453125 -12.75 Z M 2.453125 0 "/></g></g></g><g fill="#ffffff" fill-opacity="1"><g transform="translate(27.532109, 24.927147)"><g><path d="M 6.28125 -8.421875 L 6.28125 -6.828125 L 2.65625 -6.828125 L 2.65625 0 L 0.90625 0 L 0.90625 -15.765625 L 7.171875 -15.765625 L 7.171875 -14.171875 L 2.65625 -14.171875 L 2.65625 -8.421875 Z M 6.28125 -8.421875 "/></g></g></g><g fill="#ffffff" fill-opacity="1"><g transform="translate(35.193741, 24.927147)"><g><path d="M 2.65625 -15.765625 L 2.65625 0 L 0.90625 0 L 0.90625 -15.765625 Z M 2.65625 -15.765625 "/></g></g></g><g fill="#ffffff" fill-opacity="1"><g transform="translate(38.75414, 24.927147)"><g><path d="M 4.21875 -15.921875 C 5.414062 -15.921875 6.300781 -15.566406 6.875 -14.859375 C 7.445312 -14.148438 7.734375 -13.191406 7.734375 -11.984375 L 7.734375 -11.5625 L 6.0625 -11.5625 L 6.0625 -12.078125 C 6.0625 -12.796875 5.914062 -13.347656 5.625 -13.734375 C 5.34375 -14.128906 4.890625 -14.328125 4.265625 -14.328125 C 3.628906 -14.328125 3.164062 -14.128906 2.875 -13.734375 C 2.59375 -13.347656 2.453125 -12.800781 2.453125 -12.09375 C 2.453125 -11.507812 2.582031 -11 2.84375 -10.5625 C 3.113281 -10.125 3.441406 -9.722656 3.828125 -9.359375 C 4.222656 -8.992188 4.648438 -8.632812 5.109375 -8.28125 C 5.566406 -7.925781 5.988281 -7.535156 6.375 -7.109375 C 6.769531 -6.691406 7.097656 -6.21875 7.359375 -5.6875 C 7.617188 -5.15625 7.75 -4.519531 7.75 -3.78125 C 7.75 -2.582031 7.457031 -1.625 6.875 -0.90625 C 6.300781 -0.195312 5.40625 0.15625 4.1875 0.15625 C 2.96875 0.15625 2.070312 -0.195312 1.5 -0.90625 C 0.9375 -1.625 0.65625 -2.582031 0.65625 -3.78125 L 0.65625 -4.6875 L 2.296875 -4.6875 L 2.296875 -3.6875 C 2.296875 -2.96875 2.445312 -2.410156 2.75 -2.015625 C 3.050781 -1.628906 3.515625 -1.4375 4.140625 -1.4375 C 4.773438 -1.4375 5.242188 -1.628906 5.546875 -2.015625 C 5.847656 -2.410156 6 -2.96875 6 -3.6875 C 6 -4.28125 5.863281 -4.789062 5.59375 -5.21875 C 5.332031 -5.644531 5.003906 -6.039062 4.609375 -6.40625 C 4.222656 -6.78125 3.804688 -7.140625 3.359375 -7.484375 C 2.910156 -7.835938 2.488281 -8.222656 2.09375 -8.640625 C 1.707031 -9.066406 1.378906 -9.546875 1.109375 -10.078125 C 0.847656 -10.609375 0.71875 -11.242188 0.71875 -11.984375 C 0.71875 -13.203125 1.003906 -14.160156 1.578125 -14.859375 C 2.148438 -15.566406 3.03125 -15.921875 4.21875 -15.921875 Z M 4.21875 -15.921875 "/></g></g></g><g fill="#ffffff" fill-opacity="1"><g transform="translate(47.136866, 24.927147)"><g><path d="M 4.21875 -15.921875 C 5.414062 -15.921875 6.300781 -15.566406 6.875 -14.859375 C 7.445312 -14.148438 7.734375 -13.191406 7.734375 -11.984375 L 7.734375 -11.5625 L 6.0625 -11.5625 L 6.0625 -12.078125 C 6.0625 -12.796875 5.914062 -13.347656 5.625 -13.734375 C 5.34375 -14.128906 4.890625 -14.328125 4.265625 -14.328125 C 3.628906 -14.328125 3.164062 -14.128906 2.875 -13.734375 C 2.59375 -13.347656 2.453125 -12.800781 2.453125 -12.09375 C 2.453125 -11.507812 2.582031 -11 2.84375 -10.5625 C 3.113281 -10.125 3.441406 -9.722656 3.828125 -9.359375 C 4.222656 -8.992188 4.648438 -8.632812 5.109375 -8.28125 C 5.566406 -7.925781 5.988281 -7.535156 6.375 -7.109375 C 6.769531 -6.691406 7.097656 -6.21875 7.359375 -5.6875 C 7.617188 -5.15625 7.75 -4.519531 7.75 -3.78125 C 7.75 -2.582031 7.457031 -1.625 6.875 -0.90625 C 6.300781 -0.195312 5.40625 0.15625 4.1875 0.15625 C 2.96875 0.15625 2.070312 -0.195312 1.5 -0.90625 C 0.9375 -1.625 0.65625 -2.582031 0.65625 -3.78125 L 0.65625 -4.6875 L 2.296875 -4.6875 L 2.296875 -3.6875 C 2.296875 -2.96875 2.445312 -2.410156 2.75 -2.015625 C 3.050781 -1.628906 3.515625 -1.4375 4.140625 -1.4375 C 4.773438 -1.4375 5.242188 -1.628906 5.546875 -2.015625 C 5.847656 -2.410156 6 -2.96875 6 -3.6875 C 6 -4.28125 5.863281 -4.789062 5.59375 -5.21875 C 5.332031 -5.644531 5.003906 -6.039062 4.609375 -6.40625 C 4.222656 -6.78125 3.804688 -7.140625 3.359375 -7.484375 C 2.910156 -7.835938 2.488281 -8.222656 2.09375 -8.640625 C 1.707031 -9.066406 1.378906 -9.546875 1.109375 -10.078125 C 0.847656 -10.609375 0.71875 -11.242188 0.71875 -11.984375 C 0.71875 -13.203125 1.003906 -14.160156 1.578125 -14.859375 C 2.148438 -15.566406 3.03125 -15.921875 4.21875 -15.921875 Z M 4.21875 -15.921875 "/></g></g></g><g fill="#ffffff" fill-opacity="1"><g transform="translate(55.519592, 24.927147)"><g><path d="M 7.171875 -18.0625 C 7.003906 -17.613281 6.78125 -17.285156 6.5 -17.078125 C 6.21875 -16.878906 5.90625 -16.78125 5.5625 -16.78125 C 5.34375 -16.78125 5.144531 -16.8125 4.96875 -16.875 C 4.789062 -16.945312 4.617188 -17.023438 4.453125 -17.109375 C 4.296875 -17.191406 4.140625 -17.265625 3.984375 -17.328125 C 3.835938 -17.398438 3.675781 -17.4375 3.5 -17.4375 C 3.28125 -17.4375 3.09375 -17.382812 2.9375 -17.28125 C 2.789062 -17.1875 2.660156 -17.015625 2.546875 -16.765625 L 1.671875 -17.375 C 1.859375 -17.832031 2.09375 -18.160156 2.375 -18.359375 C 2.664062 -18.554688 2.984375 -18.660156 3.328125 -18.671875 C 3.554688 -18.671875 3.757812 -18.632812 3.9375 -18.5625 C 4.125 -18.5 4.296875 -18.421875 4.453125 -18.328125 C 4.609375 -18.242188 4.765625 -18.164062 4.921875 -18.09375 C 5.078125 -18.03125 5.238281 -18 5.40625 -18 C 5.601562 -18.019531 5.769531 -18.078125 5.90625 -18.171875 C 6.050781 -18.265625 6.1875 -18.429688 6.3125 -18.671875 Z M 4.375 -15.921875 C 5.59375 -15.921875 6.5 -15.566406 7.09375 -14.859375 C 7.695312 -14.148438 8 -13.1875 8 -11.96875 L 8 -3.8125 C 8 -2.601562 7.695312 -1.640625 7.09375 -0.921875 C 6.5 -0.203125 5.59375 0.15625 4.375 0.15625 C 3.15625 0.15625 2.25 -0.203125 1.65625 -0.921875 C 1.0625 -1.640625 0.765625 -2.601562 0.765625 -3.8125 L 0.765625 -11.96875 C 0.765625 -13.1875 1.0625 -14.148438 1.65625 -14.859375 C 2.25 -15.566406 3.15625 -15.921875 4.375 -15.921875 Z M 4.375 -14.328125 C 3.738281 -14.328125 3.265625 -14.128906 2.953125 -13.734375 C 2.648438 -13.335938 2.5 -12.773438 2.5 -12.046875 L 2.5 -3.71875 C 2.5 -3 2.648438 -2.4375 2.953125 -2.03125 C 3.265625 -1.632812 3.738281 -1.4375 4.375 -1.4375 C 5.019531 -1.4375 5.488281 -1.632812 5.78125 -2.03125 C 6.082031 -2.4375 6.234375 -3 6.234375 -3.71875 L 6.234375 -12.046875 C 6.234375 -12.773438 6.082031 -13.335938 5.78125 -13.734375 C 5.488281 -14.128906 5.019531 -14.328125 4.375 -14.328125 Z M 4.375 -14.328125 "/></g></g></g><g fill="#ffffff" fill-opacity="1"><g transform="translate(64.285387, 24.927147)"><g><path d="M 6.515625 -8.78125 L 6.515625 -7.203125 L 2.65625 -7.203125 L 2.65625 -1.59375 L 7.390625 -1.59375 L 7.390625 0 L 0.90625 0 L 0.90625 -15.765625 L 7.390625 -15.765625 L 7.390625 -14.171875 L 2.65625 -14.171875 L 2.65625 -8.78125 Z M 6.515625 -8.78125 "/></g></g></g><g fill="#ffffff" fill-opacity="1"><g transform="translate(72.39771, 24.927147)"><g><path d="M 4.21875 -15.921875 C 5.414062 -15.921875 6.300781 -15.566406 6.875 -14.859375 C 7.445312 -14.148438 7.734375 -13.191406 7.734375 -11.984375 L 7.734375 -11.5625 L 6.0625 -11.5625 L 6.0625 -12.078125 C 6.0625 -12.796875 5.914062 -13.347656 5.625 -13.734375 C 5.34375 -14.128906 4.890625 -14.328125 4.265625 -14.328125 C 3.628906 -14.328125 3.164062 -14.128906 2.875 -13.734375 C 2.59375 -13.347656 2.453125 -12.800781 2.453125 -12.09375 C 2.453125 -11.507812 2.582031 -11 2.84375 -10.5625 C 3.113281 -10.125 3.441406 -9.722656 3.828125 -9.359375 C 4.222656 -8.992188 4.648438 -8.632812 5.109375 -8.28125 C 5.566406 -7.925781 5.988281 -7.535156 6.375 -7.109375 C 6.769531 -6.691406 7.097656 -6.21875 7.359375 -5.6875 C 7.617188 -5.15625 7.75 -4.519531 7.75 -3.78125 C 7.75 -2.582031 7.457031 -1.625 6.875 -0.90625 C 6.300781 -0.195312 5.40625 0.15625 4.1875 0.15625 C 2.96875 0.15625 2.070312 -0.195312 1.5 -0.90625 C 0.9375 -1.625 0.65625 -2.582031 0.65625 -3.78125 L 0.65625 -4.6875 L 2.296875 -4.6875 L 2.296875 -3.6875 C 2.296875 -2.96875 2.445312 -2.410156 2.75 -2.015625 C 3.050781 -1.628906 3.515625 -1.4375 4.140625 -1.4375 C 4.773438 -1.4375 5.242188 -1.628906 5.546875 -2.015625 C 5.847656 -2.410156 6 -2.96875 6 -3.6875 C 6 -4.28125 5.863281 -4.789062 5.59375 -5.21875 C 5.332031 -5.644531 5.003906 -6.039062 4.609375 -6.40625 C 4.222656 -6.78125 3.804688 -7.140625 3.359375 -7.484375 C 2.910156 -7.835938 2.488281 -8.222656 2.09375 -8.640625 C 1.707031 -9.066406 1.378906 -9.546875 1.109375 -10.078125 C 0.847656 -10.609375 0.71875 -11.242188 0.71875 -11.984375 C 0.71875 -13.203125 1.003906 -14.160156 1.578125 -14.859375 C 2.148438 -15.566406 3.03125 -15.921875 4.21875 -15.921875 Z M 4.21875 -15.921875 "/></g></g></g><g fill="#ffffff" fill-opacity="1"><g transform="translate(80.780436, 24.927147)"><g/></g></g><g fill="#ffffff" fill-opacity="1"><g transform="translate(84.273242, 24.927147)"><g><path d="M 4.59375 -15.765625 C 5.820312 -15.765625 6.722656 -15.414062 7.296875 -14.71875 C 7.878906 -14.019531 8.171875 -13.0625 8.171875 -11.84375 L 8.171875 -3.890625 C 8.171875 -2.679688 7.878906 -1.726562 7.296875 -1.03125 C 6.722656 -0.34375 5.820312 0 4.59375 0 L 0.90625 0 L 0.90625 -15.765625 Z M 4.578125 -1.59375 C 5.203125 -1.59375 5.664062 -1.785156 5.96875 -2.171875 C 6.28125 -2.554688 6.4375 -3.109375 6.4375 -3.828125 L 6.4375 -11.9375 C 6.4375 -12.65625 6.28125 -13.207031 5.96875 -13.59375 C 5.664062 -13.976562 5.191406 -14.171875 4.546875 -14.171875 L 2.65625 -14.171875 L 2.65625 -1.59375 Z M 4.578125 -1.59375 "/></g></g></g><g fill="#ffffff" fill-opacity="1"><g transform="translate(93.196774, 24.927147)"><g><path d="M 6.515625 -8.78125 L 6.515625 -7.203125 L 2.65625 -7.203125 L 2.65625 -1.59375 L 7.390625 -1.59375 L 7.390625 0 L 0.90625 0 L 0.90625 -15.765625 L 7.390625 -15.765625 L 7.390625 -14.171875 L 2.65625 -14.171875 L 2.65625 -8.78125 Z M 6.515625 -8.78125 "/></g></g></g><g fill="#ffffff" fill-opacity="1"><g transform="translate(101.309097, 24.927147)"><g/></g></g><g fill="#ffffff" fill-opacity="1"><g transform="translate(104.801902, 24.927147)"><g><path d="M 4.296875 -15.921875 C 5.515625 -15.921875 6.410156 -15.5625 6.984375 -14.84375 C 7.566406 -14.125 7.859375 -13.164062 7.859375 -11.96875 L 7.859375 -10.546875 L 6.203125 -10.546875 L 6.203125 -12.046875 C 6.203125 -12.773438 6.050781 -13.335938 5.75 -13.734375 C 5.457031 -14.128906 4.988281 -14.328125 4.34375 -14.328125 C 3.71875 -14.328125 3.253906 -14.128906 2.953125 -13.734375 C 2.648438 -13.335938 2.5 -12.773438 2.5 -12.046875 L 2.5 -3.71875 C 2.5 -3 2.648438 -2.4375 2.953125 -2.03125 C 3.253906 -1.632812 3.71875 -1.4375 4.34375 -1.4375 C 4.988281 -1.4375 5.457031 -1.632812 5.75 -2.03125 C 6.050781 -2.4375 6.203125 -3 6.203125 -3.71875 L 6.203125 -5.765625 L 7.859375 -5.765625 L 7.859375 -3.8125 C 7.859375 -2.601562 7.566406 -1.640625 6.984375 -0.921875 C 6.410156 -0.203125 5.515625 0.15625 4.296875 0.15625 C 3.097656 0.15625 2.207031 -0.203125 1.625 -0.921875 C 1.050781 -1.640625 0.765625 -2.601562 0.765625 -3.8125 L 0.765625 -11.96875 C 0.765625 -12.5625 0.832031 -13.101562 0.96875 -13.59375 C 1.113281 -14.082031 1.332031 -14.5 1.625 -14.84375 C 1.925781 -15.1875 2.296875 -15.453125 2.734375 -15.640625 C 3.179688 -15.828125 3.703125 -15.921875 4.296875 -15.921875 Z M 4.296875 -15.921875 "/></g></g></g><g fill="#ffffff" fill-opacity="1"><g transform="translate(113.364888, 24.927147)"><g><path d="M 0.765625 -11.96875 C 0.765625 -13.1875 1.0625 -14.148438 1.65625 -14.859375 C 2.25 -15.566406 3.15625 -15.921875 4.375 -15.921875 C 5.59375 -15.921875 6.5 -15.566406 7.09375 -14.859375 C 7.695312 -14.148438 8 -13.1875 8 -11.96875 L 8 -3.8125 C 8 -2.601562 7.695312 -1.640625 7.09375 -0.921875 C 6.5 -0.203125 5.59375 0.15625 4.375 0.15625 C 3.15625 0.15625 2.25 -0.203125 1.65625 -0.921875 C 1.0625 -1.640625 0.765625 -2.601562 0.765625 -3.8125 Z M 2.5 -3.71875 C 2.5 -3 2.648438 -2.4375 2.953125 -2.03125 C 3.265625 -1.632812 3.738281 -1.4375 4.375 -1.4375 C 5.019531 -1.4375 5.488281 -1.632812 5.78125 -2.03125 C 6.082031 -2.4375 6.234375 -3 6.234375 -3.71875 L 6.234375 -12.046875 C 6.234375 -12.773438 6.082031 -13.335938 5.78125 -13.734375 C 5.488281 -14.128906 5.019531 -14.328125 4.375 -14.328125 C 3.738281 -14.328125 3.265625 -14.128906 2.953125 -13.734375 C 2.648438 -13.335938 2.5 -12.773438 2.5 -12.046875 Z M 2.5 -3.71875 "/></g></g></g><g fill="#ffffff" fill-opacity="1"><g transform="translate(122.130683, 24.927147)"><g><path d="M 4.421875 -15.765625 C 5.660156 -15.765625 6.554688 -15.457031 7.109375 -14.84375 C 7.660156 -14.226562 7.9375 -13.335938 7.9375 -12.171875 L 7.9375 -10.875 C 7.9375 -10.007812 7.773438 -9.304688 7.453125 -8.765625 C 7.140625 -8.222656 6.644531 -7.847656 5.96875 -7.640625 C 6.6875 -7.429688 7.195312 -7.046875 7.5 -6.484375 C 7.800781 -5.921875 7.953125 -5.207031 7.953125 -4.34375 L 7.953125 -1.890625 C 7.953125 -1.546875 7.96875 -1.210938 8 -0.890625 C 8.03125 -0.566406 8.117188 -0.269531 8.265625 0 L 6.484375 0 C 6.378906 -0.226562 6.304688 -0.472656 6.265625 -0.734375 C 6.222656 -0.992188 6.203125 -1.390625 6.203125 -1.921875 L 6.203125 -4.390625 C 6.203125 -5.273438 6 -5.882812 5.59375 -6.21875 C 5.195312 -6.5625 4.628906 -6.734375 3.890625 -6.734375 L 2.65625 -6.734375 L 2.65625 0 L 0.90625 0 L 0.90625 -15.765625 Z M 3.96875 -8.34375 C 4.675781 -8.34375 5.222656 -8.488281 5.609375 -8.78125 C 6.003906 -9.070312 6.203125 -9.644531 6.203125 -10.5 L 6.203125 -12.015625 C 6.203125 -12.734375 6.0625 -13.269531 5.78125 -13.625 C 5.5 -13.988281 5.03125 -14.171875 4.375 -14.171875 L 2.65625 -14.171875 L 2.65625 -8.34375 Z M 3.96875 -8.34375 "/></g></g></g><g fill="#ffffff" fill-opacity="1"><g transform="translate(131.009143, 24.927147)"><g><path d="M 2.453125 0 L 0.875 0 L 0.875 -15.765625 L 3.109375 -15.765625 L 6.765625 -4.375 L 6.765625 -15.765625 L 8.3125 -15.765625 L 8.3125 0 L 6.484375 0 L 2.453125 -12.75 Z M 2.453125 0 "/></g></g></g><g fill="#ffffff" fill-opacity="1"><g transform="translate(140.225629, 24.927147)"><g><path d="M 0.765625 -11.96875 C 0.765625 -13.1875 1.0625 -14.148438 1.65625 -14.859375 C 2.25 -15.566406 3.15625 -15.921875 4.375 -15.921875 C 5.59375 -15.921875 6.5 -15.566406 7.09375 -14.859375 C 7.695312 -14.148438 8 -13.1875 8 -11.96875 L 8 -3.8125 C 8 -2.601562 7.695312 -1.640625 7.09375 -0.921875 C 6.5 -0.203125 5.59375 0.15625 4.375 0.15625 C 3.15625 0.15625 2.25 -0.203125 1.65625 -0.921875 C 1.0625 -1.640625 0.765625 -2.601562 0.765625 -3.8125 Z M 2.5 -3.71875 C 2.5 -3 2.648438 -2.4375 2.953125 -2.03125 C 3.265625 -1.632812 3.738281 -1.4375 4.375 -1.4375 C 5.019531 -1.4375 5.488281 -1.632812 5.78125 -2.03125 C 6.082031 -2.4375 6.234375 -3 6.234375 -3.71875 L 6.234375 -12.046875 C 6.234375 -12.773438 6.082031 -13.335938 5.78125 -13.734375 C 5.488281 -14.128906 5.019531 -14.328125 4.375 -14.328125 C 3.738281 -14.328125 3.265625 -14.128906 2.953125 -13.734375 C 2.648438 -13.335938 2.5 -12.773438 2.5 -12.046875 Z M 2.5 -3.71875 "/></g></g></g></svg>