<svg xmlns="http://www.w3.org/2000/svg" xmlns:xlink="http://www.w3.org/1999/xlink" width="175" zoomAndPan="magnify" viewBox="0 0 131.25 32.999998" height="44" preserveAspectRatio="xMidYMid meet" version="1.0"><defs><g/></defs><g fill="#ffffff" fill-opacity="1"><g transform="translate(15.025468, 22.093037)"><g><path d="M 9.777344 -3.324219 C 9.152344 -2.59375 8.230469 -2.148438 7.140625 -2.148438 C 5.039062 -2.148438 3.546875 -3.859375 3.546875 -5.964844 C 3.546875 -8.066406 5.039062 -9.777344 7.140625 -9.777344 C 8.230469 -9.777344 9.152344 -9.332031 9.777344 -8.601562 L 11.464844 -10.269531 C 10.359375 -11.375 8.824219 -12.058594 7.140625 -12.058594 C 3.773438 -12.058594 1.042969 -9.332031 1.042969 -5.964844 C 1.042969 -2.59375 3.773438 0.132812 7.140625 0.132812 C 8.824219 0.132812 10.359375 -0.550781 11.464844 -1.65625 Z M 9.777344 -3.324219 "/></g></g></g><g fill="#ffffff" fill-opacity="1"><g transform="translate(27.529254, 22.093037)"><g><path d="M 6.617188 -12.074219 C 3.25 -12.074219 0.523438 -9.347656 0.523438 -5.976562 C 0.523438 -2.609375 3.25 0.121094 6.617188 0.121094 C 9.988281 0.121094 12.714844 -2.609375 12.714844 -5.976562 C 12.714844 -9.347656 9.988281 -12.074219 6.617188 -12.074219 Z M 6.617188 -9.792969 C 8.734375 -9.792969 10.226562 -8.078125 10.226562 -5.976562 C 10.226562 -3.875 8.734375 -2.160156 6.617188 -2.160156 C 4.515625 -2.160156 3.027344 -3.875 3.027344 -5.976562 C 3.027344 -8.078125 4.515625 -9.792969 6.617188 -9.792969 Z M 6.617188 -9.792969 "/></g></g></g><g fill="#ffffff" fill-opacity="1"><g transform="translate(40.763293, 22.093037)"><g><path d="M 10.359375 -7.453125 C 10.359375 -9.929688 9.226562 -11.925781 6.1875 -11.925781 L 1.042969 -11.925781 L 1.042969 0 L 3.28125 0 L 3.28125 -2.964844 L 6.1875 -2.964844 C 6.453125 -2.964844 6.707031 -2.980469 6.945312 -3.011719 L 8.019531 0 L 10.359375 0 L 9.003906 -3.816406 C 9.988281 -4.636719 10.359375 -5.964844 10.359375 -7.453125 Z M 3.28125 -5.203125 L 3.28125 -9.703125 L 6.1875 -9.703125 C 7.289062 -9.703125 7.585938 -9.332031 7.691406 -9.210938 C 7.976562 -8.855469 8.125 -8.230469 8.125 -7.453125 C 8.125 -6.632812 7.976562 -6.007812 7.707031 -5.679688 C 7.453125 -5.351562 6.945312 -5.203125 6.1875 -5.203125 Z M 3.28125 -5.203125 "/></g></g></g><g fill="#ffffff" fill-opacity="1"><g transform="translate(52.164243, 22.093037)"><g><path d="M 8.125 -11.925781 L 8.125 -3.875 L 3.488281 -11.925781 L 1.042969 -11.925781 L 1.042969 0 L 3.28125 0 L 3.28125 -7.46875 L 7.574219 0 L 10.359375 0 L 10.359375 -11.925781 Z M 8.125 -11.925781 "/></g></g></g><g fill="#ffffff" fill-opacity="1"><g transform="translate(63.565193, 22.093037)"><g><path d="M 6.617188 -12.074219 C 3.25 -12.074219 0.523438 -9.347656 0.523438 -5.976562 C 0.523438 -2.609375 3.25 0.121094 6.617188 0.121094 C 9.988281 0.121094 12.714844 -2.609375 12.714844 -5.976562 C 12.714844 -9.347656 9.988281 -12.074219 6.617188 -12.074219 Z M 6.617188 -9.792969 C 8.734375 -9.792969 10.226562 -8.078125 10.226562 -5.976562 C 10.226562 -3.875 8.734375 -2.160156 6.617188 -2.160156 C 4.515625 -2.160156 3.027344 -3.875 3.027344 -5.976562 C 3.027344 -8.078125 4.515625 -9.792969 6.617188 -9.792969 Z M 6.617188 -9.792969 "/></g></g></g><g fill="#ffffff" fill-opacity="1"><g transform="translate(76.799231, 22.093037)"><g><path d="M 5.992188 0.148438 L 6.261719 0.148438 C 8.824219 0.132812 10.285156 -1.535156 10.390625 -3.191406 C 10.507812 -4.917969 9.199219 -6.855469 6.039062 -7.261719 L 6.007812 -7.261719 C 4.859375 -7.394531 3.667969 -7.960938 3.726562 -8.796875 C 3.773438 -9.390625 4.664062 -9.941406 6.289062 -9.867188 L 6.335938 -9.867188 C 7.230469 -9.867188 8.304688 -9.4375 8.855469 -9.035156 L 10.136719 -10.824219 C 9.289062 -11.433594 7.796875 -12.058594 6.367188 -12.058594 C 3.203125 -12.222656 1.667969 -10.613281 1.535156 -8.972656 C 1.460938 -8.019531 1.863281 -7.082031 2.636719 -6.367188 C 3.398438 -5.664062 4.488281 -5.21875 5.769531 -5.082031 C 7.511719 -4.84375 8.242188 -4.039062 8.199219 -3.339844 C 8.15625 -2.699219 7.46875 -2.058594 6.230469 -2.058594 L 6.15625 -2.058594 C 6.140625 -2.058594 4.515625 -1.96875 3.519531 -2.789062 C 3.265625 -2.980469 3.054688 -3.21875 2.863281 -3.503906 L 1.042969 -2.265625 C 1.339844 -1.820312 1.714844 -1.417969 2.132812 -1.074219 C 3.488281 0.03125 5.277344 0.148438 5.992188 0.148438 Z M 5.992188 0.148438 "/></g></g></g><g fill="#ffffff" fill-opacity="1"><g transform="translate(88.229983, 22.093037)"><g/></g></g><g fill="#ffffff" fill-opacity="1"><g transform="translate(92.700944, 22.093037)"><g><path d="M 10.34375 -8.511719 C 10.34375 -10.40625 9.226562 -11.925781 6.171875 -11.925781 L 1.042969 -11.925781 L 1.042969 0 L 6.171875 0 C 9.316406 0 10.34375 -2.027344 10.34375 -3.90625 C 10.34375 -4.785156 10.105469 -5.589844 9.539062 -6.203125 C 10.121094 -6.796875 10.34375 -7.617188 10.34375 -8.511719 Z M 3.28125 -9.703125 L 6.945312 -9.703125 C 7.648438 -9.703125 8.125 -9.09375 8.125 -8.511719 C 8.125 -8.003906 7.722656 -7.320312 6.945312 -7.320312 L 3.28125 -7.320312 Z M 6.722656 -2.234375 L 3.28125 -2.234375 L 3.28125 -5.097656 L 6.722656 -5.097656 C 7.410156 -5.097656 8.125 -4.652344 8.125 -3.667969 C 8.125 -2.683594 7.378906 -2.234375 6.722656 -2.234375 Z M 6.722656 -2.234375 "/></g></g></g><g fill="#ffffff" fill-opacity="1"><g transform="translate(104.086987, 22.093037)"><g><path d="M 10.359375 -7.453125 C 10.359375 -9.929688 9.226562 -11.925781 6.1875 -11.925781 L 1.042969 -11.925781 L 1.042969 0 L 3.28125 0 L 3.28125 -2.964844 L 6.1875 -2.964844 C 6.453125 -2.964844 6.707031 -2.980469 6.945312 -3.011719 L 8.019531 0 L 10.359375 0 L 9.003906 -3.816406 C 9.988281 -4.636719 10.359375 -5.964844 10.359375 -7.453125 Z M 3.28125 -5.203125 L 3.28125 -9.703125 L 6.1875 -9.703125 C 7.289062 -9.703125 7.585938 -9.332031 7.691406 -9.210938 C 7.976562 -8.855469 8.125 -8.230469 8.125 -7.453125 C 8.125 -6.632812 7.976562 -6.007812 7.707031 -5.679688 C 7.453125 -5.351562 6.945312 -5.203125 6.1875 -5.203125 Z M 3.28125 -5.203125 "/></g></g></g></svg>